<?xml version="1.0" encoding="utf-8"?>
<!-- Generator: Adobe Illustrator 19.0.0, SVG Export Plug-In . SVG Version: 6.00 Build 0)  -->
<svg version="1.1" id="Warstwa_1" xmlns="http://www.w3.org/2000/svg" xmlns:xlink="http://www.w3.org/1999/xlink" x="0px" y="0px"
	 viewBox="0 0 750 405" style="enable-background:new 0 0 750 405;" xml:space="preserve">
<style type="text/css">
	.st0{fill:#FFFFFF;}
	.st1{fill:#D5EFFA;}
	.st2{fill:url(#XMLID_68_);}
	.st3{fill:url(#XMLID_69_);}
	.st4{fill:url(#XMLID_70_);}
	.st5{fill:url(#XMLID_71_);}
	.st6{fill:url(#XMLID_72_);}
	.st7{fill:url(#XMLID_74_);}
	.st8{fill:url(#XMLID_76_);}
	.st9{fill:url(#XMLID_77_);}
	.st10{fill:url(#XMLID_78_);}
	.st11{fill:url(#XMLID_79_);}
	.st12{fill:url(#XMLID_80_);}
	.st13{fill:url(#XMLID_81_);}
	.st14{fill:url(#XMLID_82_);}
	.st15{fill:url(#XMLID_83_);}
	.st16{fill:url(#XMLID_84_);}
	.st17{fill:url(#XMLID_85_);}
	.st18{fill:url(#XMLID_86_);}
	.st19{fill:url(#XMLID_87_);}
	.st20{fill:url(#XMLID_88_);}
	.st21{fill:#004B4F;}
	.st22{fill:url(#XMLID_89_);}
	.st23{fill:url(#XMLID_90_);}
	.st24{fill:url(#XMLID_91_);}
	.st25{fill:url(#XMLID_92_);}
	.st26{fill:url(#XMLID_93_);}
	.st27{fill:url(#XMLID_94_);}
	.st28{fill:url(#XMLID_95_);}
	.st29{fill:url(#XMLID_96_);}
	.st30{fill:url(#XMLID_97_);}
	.st31{fill:url(#XMLID_98_);}
	.st32{fill:url(#XMLID_99_);}
	.st33{fill:url(#XMLID_100_);}
	.st34{fill:url(#XMLID_101_);}
	.st35{fill:url(#XMLID_102_);}
	.st36{fill:url(#XMLID_103_);}
	.st37{fill:url(#XMLID_104_);}
	.st38{fill:url(#XMLID_105_);}
	.st39{fill:url(#XMLID_106_);}
	.st40{fill:url(#XMLID_107_);}
	.st41{fill:url(#XMLID_108_);}
	.st42{fill:url(#XMLID_109_);}
	.st43{fill:url(#XMLID_110_);}
	.st44{fill:url(#XMLID_111_);}
	.st45{fill:url(#XMLID_112_);}
	.st46{fill:url(#XMLID_113_);}
	.st47{fill:url(#XMLID_114_);}
	.st48{fill:url(#XMLID_115_);}
	.st49{fill:url(#XMLID_116_);}
	.st50{fill:url(#XMLID_117_);}
	.st51{fill:url(#XMLID_118_);}
	.st52{fill:url(#XMLID_119_);}
	.st53{fill:url(#XMLID_120_);}
	.st54{fill:url(#XMLID_121_);}
	.st55{fill:url(#XMLID_122_);}
	.st56{fill:url(#XMLID_123_);}
	.st57{fill:url(#XMLID_124_);}
	.st58{fill:url(#XMLID_125_);}
	.st59{fill:url(#XMLID_126_);}
	.st60{fill:url(#XMLID_127_);}
	.st61{fill:url(#XMLID_128_);}
</style>
<rect id="XMLID_75_" class="st0" width="750" height="405"/>
<path id="XMLID_65_" class="st1" d="M645.8,332.9c-84.9,76.9-211.3,89.5-305.2,29.6c-39.6-25.2-71.8-62.4-75.4-116.9
	C255.5,96.2,411.7,88,478.7,101.1c32,6.3,52.4-11.7,73.2-33.4c26.9-28,67.1-59.9,105.3-35.5c22.3,14.3,37.6,38.4,47.8,62
	c30,69.5,17.1,150.6-32.6,210.8C664.3,315,655.3,324.3,645.8,332.9z"/>
<linearGradient id="XMLID_68_" gradientUnits="userSpaceOnUse" x1="414.5343" y1="1102.9443" x2="413.2369" y2="1064.5094" gradientTransform="matrix(0.7397 -0.3672 0.4258 0.8577 -365.4324 -458.645)">
	<stop  offset="5.376341e-003" style="stop-color:#0071BC"/>
	<stop  offset="1" style="stop-color:#2E3192"/>
</linearGradient>
<path id="XMLID_64_" class="st2" d="M410.8,307.6c0,0-7.7,10-8.2,11.1c-0.4,1.1-1.7,2.9-1.8,7c-0.1,4.1-1.8,7.5-2.4,9.6
	c-0.6,2.1-1.9,3.8-1.6,4.6c0.3,0.8,2.8,2.7,5.8,0.8c3-1.9,3.6-4.4,3.8-5.9c0.3-1.5,1.6-6.2,2.7-8.8c1.1-2.6,2.7-3.7,3.5-4.7
	c0.8-1,4.1-5.6,4.1-5.6L410.8,307.6z"/>
<linearGradient id="XMLID_69_" gradientUnits="userSpaceOnUse" x1="223.0995" y1="871.358" x2="221.8028" y2="832.9432" gradientTransform="matrix(0.9441 -0.3297 0.3297 0.9441 -97.3137 -417.2224)">
	<stop  offset="5.376341e-003" style="stop-color:#0071BC"/>
	<stop  offset="1" style="stop-color:#2E3192"/>
</linearGradient>
<path id="XMLID_63_" class="st3" d="M406.2,302.6c0,0-11.1,10-11.8,11.1c-0.7,1.1-2.5,2.9-3.5,7.2c-1,4.3-3.7,7.8-4.8,10
	c-1.2,2.2-3,3.9-2.8,4.7c0.2,0.8,2.7,3.1,6.7,1.3c4-1.7,5.1-4.4,5.7-6c0.6-1.6,3.1-6.4,5-9.1c1.8-2.7,3.9-3.7,5-4.8
	c1.1-1,6-5.6,6-5.6L406.2,302.6z"/>
<linearGradient id="XMLID_70_" gradientUnits="userSpaceOnUse" x1="317.0046" y1="622.9474" x2="315.6052" y2="581.4891" gradientTransform="matrix(0.9838 -0.1794 0.1794 0.9838 -34.1118 -228.5941)">
	<stop  offset="5.376341e-003" style="stop-color:#0071BC"/>
	<stop  offset="1" style="stop-color:#2E3192"/>
</linearGradient>
<path id="XMLID_62_" class="st4" d="M400.3,297.1c0,0-13.5,8.8-14.5,9.9c-1,1.1-3.2,2.7-4.9,7.1s-5.2,7.7-6.8,9.9
	c-1.6,2.2-3.9,3.6-3.7,4.6c0.1,0.9,2.4,3.7,6.9,2.5c4.5-1.2,6.2-3.8,7.1-5.4c0.9-1.6,4.4-6.3,6.8-8.8c2.4-2.5,4.8-3.3,6.1-4.2
	c1.4-0.9,7.3-5,7.3-5L400.3,297.1z"/>
<linearGradient id="XMLID_71_" gradientUnits="userSpaceOnUse" x1="381.7405" y1="316.2872" x2="380.4427" y2="277.8384">
	<stop  offset="5.376341e-003" style="stop-color:#0071BC"/>
	<stop  offset="1" style="stop-color:#2E3192"/>
</linearGradient>
<path id="XMLID_61_" class="st5" d="M396.7,290.5c0,0-13.8,5.8-14.9,6.6c-1.1,0.8-3.4,1.9-5.7,5.7c-2.3,3.8-6,6.1-7.9,7.9
	c-1.8,1.7-4.1,2.7-4.2,3.5c0,0.9,1.5,3.8,5.8,3.4s6.3-2.5,7.4-3.8c1.1-1.3,5.1-5,7.7-6.9s4.9-2.3,6.3-2.8c1.4-0.6,7.5-3.3,7.5-3.3
	L396.7,290.5z"/>
<linearGradient id="XMLID_72_" gradientUnits="userSpaceOnUse" x1="415.2989" y1="324.812" x2="418.3701" y2="299.8229">
	<stop  offset="5.376341e-003" style="stop-color:#0071BC"/>
	<stop  offset="1" style="stop-color:#2E3192"/>
</linearGradient>
<path id="XMLID_60_" class="st6" d="M395.2,287.8c-0.3,4.5-1.1,9.9,5.7,19s7.9,11.5,11.9,11.9s11,2,18.9,0c7.9-2,9.7-5.6,9.7-5.6
	l-2.2-25.3H395.2z"/>
<linearGradient id="XMLID_74_" gradientUnits="userSpaceOnUse" x1="468.9637" y1="273.4468" x2="594.0454" y2="317.458">
	<stop  offset="0" style="stop-color:#FFD8C2"/>
	<stop  offset="1" style="stop-color:#FFB49C"/>
</linearGradient>
<path id="XMLID_59_" class="st7" d="M553.6,261.9c0,0-16,14.5-20.5,15.6c-4.5,1.1-74.6,5.6-74.6,5.6V311c0,0,55.8,4.5,70.4,5.3
	c14.6,0.8,24.7,0.3,31.1-4.5c6.4-4.7,22.7-19.3,22.7-19.3L553.6,261.9z"/>
<linearGradient id="XMLID_76_" gradientUnits="userSpaceOnUse" x1="450.3515" y1="267.6011" x2="450.3515" y2="329.6964">
	<stop  offset="5.376341e-003" style="stop-color:#0071BC"/>
	<stop  offset="1" style="stop-color:#2E3192"/>
</linearGradient>
<path id="XMLID_58_" class="st8" d="M462.7,277.5c-2.8-0.3-21.8,2.7-23.6,2.7c-1.9,0-4.3,0.6-4.3,4c0,3.4,1.3,19.6,1.9,25.4
	c0.6,5.8,1.5,6.5,3,7c1.5,0.5,12.7,1.9,18,2c5.3,0.1,8.2,0.1,8.2-2.8C465.9,313,465.5,277.8,462.7,277.5z"/>
<linearGradient id="XMLID_77_" gradientUnits="userSpaceOnUse" x1="405.1267" y1="300.4974" x2="404.0099" y2="267.4128">
	<stop  offset="5.376341e-003" style="stop-color:#0071BC"/>
	<stop  offset="1" style="stop-color:#2E3192"/>
</linearGradient>
<path id="XMLID_57_" class="st9" d="M436.9,293.8c-7.2,4.7-10.4,8.9-24.1,5.9c-13.7-3.1-14.6-8.8-18.1-8.1s-8.3,3.5-13.9,2.9
	c-5.6-0.6-10.5-3.8-7.7-6s6.3-3.5,11.1-5.7c4.8-2.2,6.9-3.8,12.1-3.8c5.2,0,14.9,1.4,22.6,0.8s12.9-1.3,14.4-0.8
	c1.5,0.4,3.6,2.9,3.6,2.9V293.8z"/>
<linearGradient id="XMLID_78_" gradientUnits="userSpaceOnUse" x1="547.2479" y1="208.6318" x2="689.4675" y2="300.8326">
	<stop  offset="0" style="stop-color:#444F61"/>
	<stop  offset="1" style="stop-color:#262C36"/>
</linearGradient>
<path id="XMLID_56_" class="st10" d="M595.9,197.5c0,0-10.4,8.5-17.4,14.5c-7,6-10.8,9.4-15.7,20.2c-4.9,10.9-8.8,21.5-12.6,24.8
	c-3.8,3.4-5,4.3-4.5,6.6c0.6,2.2,6.6,12.3,20.2,24c13.6,11.7,18.5,10.9,19.9,10.2s6.6-8.6,6.6-8.6l21.7,54.8h103.7
	c0,0-0.6-25.1,0-47.2s6.2-62.2-19.1-81.2c-25.2-19-50-30.7-50-30.7L595.9,197.5z"/>
<linearGradient id="XMLID_79_" gradientUnits="userSpaceOnUse" x1="624.3983" y1="203.8882" x2="614.9059" y2="159.2182">
	<stop  offset="0" style="stop-color:#FFD8C2"/>
	<stop  offset="1" style="stop-color:#FFB49C"/>
</linearGradient>
<path id="XMLID_55_" class="st11" d="M601.5,176.2c0,0,0.7,11,0,14.2c-0.7,3.2-6,7.1-6.4,8.2c-0.5,1.1-0.8,19.2,16.6,20.3
	c26.7,1.7,39.3-30,38-32.7c-1.2-2.7-9.6-6.2-11.8-13.2c-2.1-7-3.1-19.9-3.1-19.9h-33.7L601.5,176.2z"/>
<linearGradient id="XMLID_80_" gradientUnits="userSpaceOnUse" x1="617.9384" y1="183.7506" x2="612.1077" y2="156.3121">
	<stop  offset="0" style="stop-color:#FFD8C2"/>
	<stop  offset="1" style="stop-color:#FFB49C"/>
</linearGradient>
<path id="XMLID_54_" class="st12" d="M636.3,165.2c-1-6.1-1.4-12.1-1.4-12.1h-33.7l0.4,23.1c0,0,0.7,11,0,14.2
	c-0.5,2-2.7,4.2-4.4,5.9C614.3,193.8,630.3,183.1,636.3,165.2z"/>
<linearGradient id="XMLID_81_" gradientUnits="userSpaceOnUse" x1="559.3563" y1="119.0359" x2="655.1857" y2="152.7545">
	<stop  offset="0" style="stop-color:#FFD8C2"/>
	<stop  offset="1" style="stop-color:#FFB49C"/>
</linearGradient>
<path id="XMLID_53_" class="st13" d="M561.5,97.5c-4.9,14.9-4.3,25.3-3.2,34.1s2.2,13.6,1.8,20.5c-0.4,6.8,1.4,17.7,8.2,25.8
	c6.8,8.1,11.4,14.2,18.3,14.2c13.6,0,29.3-12.3,36.4-19.5c7.1-7.3,9-15.6,9-15.6s15.3-8.6,15.9-37.6s-22.3-46-43.4-46
	C581.7,73.3,566,83.8,561.5,97.5z"/>
<linearGradient id="XMLID_82_" gradientUnits="userSpaceOnUse" x1="579.6646" y1="72.1023" x2="628.1561" y2="138.8724">
	<stop  offset="0" style="stop-color:#8C6F5A"/>
	<stop  offset="1" style="stop-color:#5C3D3B"/>
</linearGradient>
<path id="XMLID_52_" class="st14" d="M615.1,112.3c-1.8-3-6.3-8-13.6-6.4c-7.3,1.5-23.1,11.3-32.8,10.9c-9.7-0.4-13.4-2.5-18.6-6.5
	c-5.1-4-7.8-11.3-6.6-11.3s5.9-0.7,8.4-1.7c-4.4-2.2-7.6-10.2-6.5-10.8c1-0.6,8.3,0.8,17.4-7.4c9.1-8.3,18.7-16.2,39.4-16.7
	c20.7-0.6,31.3,5.5,36.5,11.4C645.2,80.9,647,89,647,89s11.9,6.5,9.7,29.1s-10.6,31.8-16,36.9l-8.4-22.3c0,0-2,9.3-2.8,10.5
	c-0.8,1.2-4.9,1.3-4.9,0s0-9.4,0-11.2c0-1.8-1.2-4.1-2.1-4.7c-0.9-0.6-5.4-2-5.5-4C616.8,120.8,616.5,114.6,615.1,112.3z"/>
<linearGradient id="XMLID_83_" gradientUnits="userSpaceOnUse" x1="560.5444" y1="115.834" x2="656.3036" y2="149.5278">
	<stop  offset="0" style="stop-color:#FFD8C2"/>
	<stop  offset="1" style="stop-color:#FFB49C"/>
</linearGradient>
<path id="XMLID_51_" class="st15" d="M632.3,132.7c0,0,1-6.1,5-6.3c4-0.3,10.9,1.8,10.6,13.8c-0.3,12-8.6,19.1-16.3,18.1
	L632.3,132.7z"/>
<linearGradient id="XMLID_84_" gradientUnits="userSpaceOnUse" x1="656.9544" y1="176.9439" x2="656.9544" y2="248.0987">
	<stop  offset="5.376341e-003" style="stop-color:#0071BC"/>
	<stop  offset="1" style="stop-color:#2E3192"/>
</linearGradient>
<path id="XMLID_50_" class="st16" d="M644.2,235.5c0,0,2.4-29.2,12.7-46.4c0,0,0.6-1.2,2.1-0.6s9.1,4.8,10,5.5
	c0.9,0.7,0.7,2.3,0.7,2.3s-8.9,20.1-9.1,39.2H644.2z"/>
<linearGradient id="XMLID_85_" gradientUnits="userSpaceOnUse" x1="588.8258" y1="189.0623" x2="588.8258" y2="251.2565">
	<stop  offset="5.376341e-003" style="stop-color:#0071BC"/>
	<stop  offset="1" style="stop-color:#2E3192"/>
</linearGradient>
<path id="XMLID_49_" class="st17" d="M594.9,235.9c0,0-4.5-18.8-1.8-36.1c0,0-0.6-1.1-1.5-0.7c-0.9,0.5-7,6-7.6,7
	c-0.6,0.9-0.8,2-0.8,2s-2,19.6,2.5,32.1L594.9,235.9z"/>
<linearGradient id="XMLID_86_" gradientUnits="userSpaceOnUse" x1="653.9753" y1="188.8958" x2="653.9753" y2="451.5173">
	<stop  offset="5.376341e-003" style="stop-color:#0071BC"/>
	<stop  offset="1" style="stop-color:#2E3192"/>
</linearGradient>
<path id="XMLID_73_" class="st18" d="M724,344.1V405H597.1c0.6-5,1.2-9.3,1.8-14.1c1.2-10.1,2.4-20.3,3.2-29.4
	c1.3-13,1.9-23.7,1.3-28c-0.4-3.1-1.5-6.9-2.9-11.3c-0.2-0.7-0.4-1.4-0.7-2.2c-2.5-7.9-6-17.5-9-28.2c-3.7-13.3-6.9-28.2-6.9-43.7
	c0-2.2,0-6,1-9.3v0c1-3.1,3.9-5.7,9.2-5.9c0.2,0,0.5,0,0.7,0c9.4,0,35.2-1.2,49.7-1.6c3.7-0.1,6.6-0.2,8.4-0.2c4,0,6.3,0.3,7.7,1.5
	c1.6,1.3,2.1,3.6,2.5,7.8c0,0.3,0.1,0.7,0.1,1c0.4,4.5,1.3,14.6,4.1,26.6c2.9,11.9,7.8,25.6,16.3,37.2c2.9,3.9,5.7,7.3,8.5,10.2
	c11.8,12.5,21.7,15.7,25.4,17.1c0.5,0.2,1.1,0.3,1.4,0.5C721.6,334.2,724,338.2,724,344.1z"/>
<linearGradient id="XMLID_87_" gradientUnits="userSpaceOnUse" x1="589.4517" y1="241.4025" x2="595.3339" y2="244.7913">
	<stop  offset="0" style="stop-color:#FFFFFF"/>
	<stop  offset="1" style="stop-color:#CED2F7"/>
</linearGradient>
<ellipse id="XMLID_47_" class="st19" cx="592.3" cy="243" rx="4.1" ry="4"/>
<linearGradient id="XMLID_88_" gradientUnits="userSpaceOnUse" x1="649.1393" y1="238.6113" x2="655.0215" y2="242.0002">
	<stop  offset="0" style="stop-color:#FFFFFF"/>
	<stop  offset="1" style="stop-color:#CED2F7"/>
</linearGradient>
<ellipse id="XMLID_46_" class="st20" cx="652" cy="240.2" rx="4.1" ry="4"/>
<path id="XMLID_45_" class="st21" d="M434.2,378.4c0,0,4.3-19.2,5-32.4c0.8-13.2,0.2-50-1.4-56.4c-1.6-6.4-1.7-14.1-3.6-19.9
	c-1.9-5.8-5.9-16.1-9.6-21.4c-3.7-5.3-14.5-30.4-17.8-34.4c-3.3-4.1-4.2-7.6-4.2-13c0-5.3,0.1-36.4,0-41s-0.7-10.4-0.7-15.1
	s-0.5-18.8,1.2-25.9c1.7-7.1-0.1-12.4-0.3-17.8c-0.2-5.5,1.4-17.5,1.4-17.5l1.4,5.1c0,0-1.4,8.3-0.8,12.8c0.6,4.5,1.4,10.1,1.4,15.3
	c0,5.1-1.4,6.9-1.1,15.4s0.6,18.5,1.1,23.6c0.5,5.1,0.5,24.1,0.9,30.5c0.5,6.4,0,13.5,2.8,20.6c2.8,7.1,7.2,14.9,11.8,23
	c4.6,8,12.4,23.4,14.9,27.6c2.4,4.2,3.8,5.6,4.3,10.4c0.5,4.8,4.6,17.4,5,23.6c0.4,6.2,1.3,15.4,1.3,24c0,8.6,0.6,20.5,1.7,29.2
	c1.1,8.7,4.4,22.3,4.1,33.7H434.2z"/>
<path id="XMLID_44_" class="st21" d="M404.8,210.7c-4.4-5-6.7-11.3-8.1-13.5c-1.4-2.2-6.4-7.7-6.8-8.7c-0.5-1-2.7-14.8-3.2-17
	c-0.5-2.2-2.1-10.6-3.2-14.9c-1.1-4.3-2.3-12.9-3.3-18.7c-1-5.8-2.3-10.7-2.3-10.7l1,0.7c0,0,2.7,8.7,3,10.1
	c0.2,1.4,1.8,10.6,2.5,12.8c0.7,2.2,1.8,4.5,2.3,7.1s1.4,11.4,2.7,15.1c1.4,3.6,3,11.2,4.3,14.3c1.4,3.1,3.2,4.6,4.2,5.5
	c1,1,6.9,8.8,6.9,8.8V210.7z"/>
<path id="XMLID_43_" class="st21" d="M405.7,188c0,0,3.3-11.2,5.9-16.9c2.6-5.6,2.9-9.5,5-14.9c2.1-5.5,5.2-10.1,5.5-15.4
	c0.3-5.3,1.7-17.5,1.7-17.5l-2.1,1.3c0,0-0.8,13.2-1.5,16.5c-0.8,3.4-4.6,12.4-6.5,15.7c-2,3.4-8.8,20.9-8.8,20.9L405.7,188z"/>
<path id="XMLID_42_" class="st21" d="M444.6,296.3c0,0,7.4-16.7,8.4-22.6c1-5.9,3.5-18.9,8.1-27.9c4.5-9,9.1-18.2,12-23.8
	c2.9-5.6,9.3-13.5,10.5-17.3c1.2-3.9,3.2-18,4.9-22.3c1.7-4.3,3.8-15.3,3.8-15.3l-1.7,2c0,0-4.1,12.7-5.3,15.9
	c-1.2,3.2-3.5,16.4-4.9,19.9c-1.4,3.5-8,12.7-10.3,14c-2.3,1.3-2.6,4.7-3,6.4s-7.9,16.7-10.3,21c-2.4,4.3-6.8,10.8-7.3,12
	s-3.7,20.4-7.4,27.1L444.6,296.3z"/>
<path id="XMLID_41_" class="st21" d="M455.2,253.1c0,0,0.3-14.8-0.8-22c-1.1-7.2-3.8-15.9-3.6-20.3c0.2-4.4,0.7-12.3,1.1-17.4
	c0.4-5.1,1.2-11.4,1.1-15.1c-0.1-3.7,0-11.2,0-11.2l1.1,2c0,0-0.2,7.7,0,10c0.1,2.3,0.6,13.2,0.1,14.7s-1.7,15.3-1.1,18.5
	c0.5,3.3,4.3,15.1,4.9,18.9c0.6,3.8,1.1,12.9,1.1,12.9L455.2,253.1z"/>
<linearGradient id="XMLID_89_" gradientUnits="userSpaceOnUse" x1="-494.0009" y1="-1520.4349" x2="-478.6368" y2="-1514.0527" gradientTransform="matrix(0.3217 0.9468 -0.9468 0.3217 -803.5155 1185.3556)">
	<stop  offset="0" style="stop-color:#CBF060"/>
	<stop  offset="0.338" style="stop-color:#A3D256"/>
	<stop  offset="0.7792" style="stop-color:#74AF4B"/>
	<stop  offset="1" style="stop-color:#62A147"/>
</linearGradient>
<path id="XMLID_40_" class="st22" d="M477.5,252.9c-8.8,3.2-17.3-5.2-17.3-5.2s1.9-12.1,10.7-15.3c8.8-3.2,21.3,3.8,21.3,3.8
	S486.3,249.8,477.5,252.9z"/>
<linearGradient id="XMLID_90_" gradientUnits="userSpaceOnUse" x1="-495.9729" y1="-1528.5815" x2="-461.119" y2="-1496.4087" gradientTransform="matrix(0.3217 0.9468 -0.9468 0.3217 -803.5155 1185.3556)">
	<stop  offset="0" style="stop-color:#CBF060"/>
	<stop  offset="0.338" style="stop-color:#A3D256"/>
	<stop  offset="0.7792" style="stop-color:#74AF4B"/>
	<stop  offset="1" style="stop-color:#62A147"/>
</linearGradient>
<path id="XMLID_39_" class="st23" d="M477.5,252.9c8.8-3.2,14.7-16.7,14.7-16.7l-32,11.5C460.2,247.7,468.7,256.1,477.5,252.9z"/>
<linearGradient id="XMLID_91_" gradientUnits="userSpaceOnUse" x1="417.8635" y1="-205.4431" x2="432.8004" y2="-199.2383" gradientTransform="matrix(0.965 0.2622 -0.2622 0.965 -39.414 296.8525)">
	<stop  offset="0" style="stop-color:#CBF060"/>
	<stop  offset="0.338" style="stop-color:#A3D256"/>
	<stop  offset="0.7792" style="stop-color:#74AF4B"/>
	<stop  offset="1" style="stop-color:#62A147"/>
</linearGradient>
<path id="XMLID_38_" class="st24" d="M437.4,221.2c-2.4,9.5-13.7,12.2-13.7,12.2s-8.4-8.4-6-17.9c2.4-9.5,14.9-16.6,14.9-16.6
	S439.8,211.7,437.4,221.2z"/>
<linearGradient id="XMLID_92_" gradientUnits="userSpaceOnUse" x1="414.9886" y1="-214.2332" x2="450.773" y2="-181.2014" gradientTransform="matrix(0.965 0.2622 -0.2622 0.965 -39.414 296.8525)">
	<stop  offset="0" style="stop-color:#CBF061"/>
	<stop  offset="0.3393" style="stop-color:#A3D257"/>
	<stop  offset="0.7796" style="stop-color:#74AF4B"/>
	<stop  offset="1" style="stop-color:#62A147"/>
</linearGradient>
<path id="XMLID_37_" class="st25" d="M437.4,221.2c2.4-9.5-4.9-22.2-4.9-22.2l-8.9,34.5C423.6,233.4,434.9,230.7,437.4,221.2z"/>
<linearGradient id="XMLID_93_" gradientUnits="userSpaceOnUse" x1="-1246.3464" y1="1760.5786" x2="-1231.2332" y2="1766.8567" gradientTransform="matrix(0.1253 -0.9921 0.9921 0.1253 -1188.2957 -1200.8901)">
	<stop  offset="0" style="stop-color:#CBF060"/>
	<stop  offset="0.338" style="stop-color:#A3D256"/>
	<stop  offset="0.7792" style="stop-color:#74AF4B"/>
	<stop  offset="1" style="stop-color:#62A147"/>
</linearGradient>
<path id="XMLID_36_" class="st26" d="M412.2,234.2c9.3,1.2,13.4,12.7,13.4,12.7s-6.7,10-15.9,8.8c-9.3-1.2-17.6-13.3-17.6-13.3
	S402.9,233,412.2,234.2z"/>
<linearGradient id="XMLID_94_" gradientUnits="userSpaceOnUse" x1="-1248.067" y1="1752.7559" x2="-1214.1996" y2="1784.0181" gradientTransform="matrix(0.1253 -0.9921 0.9921 0.1253 -1188.2957 -1200.8901)">
	<stop  offset="0" style="stop-color:#CBF060"/>
	<stop  offset="0.338" style="stop-color:#A3D256"/>
	<stop  offset="0.7792" style="stop-color:#74AF4B"/>
	<stop  offset="1" style="stop-color:#62A147"/>
</linearGradient>
<path id="XMLID_35_" class="st27" d="M412.2,234.2c-9.3-1.2-20.1,8.2-20.1,8.2l33.5,4.5C425.6,246.9,421.4,235.4,412.2,234.2z"/>
<linearGradient id="XMLID_95_" gradientUnits="userSpaceOnUse" x1="-514.3777" y1="-1539.849" x2="-502.0329" y2="-1534.7211" gradientTransform="matrix(0.3217 0.9468 -0.9468 0.3217 -803.5155 1185.3556)">
	<stop  offset="0" style="stop-color:#CBF060"/>
	<stop  offset="0.338" style="stop-color:#A3D256"/>
	<stop  offset="0.7792" style="stop-color:#74AF4B"/>
	<stop  offset="1" style="stop-color:#62A147"/>
</linearGradient>
<path id="XMLID_34_" class="st28" d="M489.3,222.6c-7.1,2.5-13.9-4.2-13.9-4.2s1.5-9.7,8.6-12.3c7.1-2.6,17.1,3,17.1,3
	S496.3,220.1,489.3,222.6z"/>
<linearGradient id="XMLID_96_" gradientUnits="userSpaceOnUse" x1="-515.9622" y1="-1546.3948" x2="-487.9579" y2="-1520.5447" gradientTransform="matrix(0.3217 0.9468 -0.9468 0.3217 -803.5155 1185.3556)">
	<stop  offset="0" style="stop-color:#CBF060"/>
	<stop  offset="0.338" style="stop-color:#A3D256"/>
	<stop  offset="0.7792" style="stop-color:#74AF4B"/>
	<stop  offset="1" style="stop-color:#62A147"/>
</linearGradient>
<path id="XMLID_33_" class="st29" d="M489.3,222.6c7.1-2.5,11.8-13.4,11.8-13.4l-25.7,9.2C475.4,218.4,482.2,225.2,489.3,222.6z"/>
<linearGradient id="XMLID_97_" gradientUnits="userSpaceOnUse" x1="-855.4652" y1="1702.8375" x2="-843.4788" y2="1707.8167" gradientTransform="matrix(0.3543 -0.9351 0.9351 0.3543 -912.207 -1202.8385)">
	<stop  offset="0" style="stop-color:#CBF060"/>
	<stop  offset="0.338" style="stop-color:#A3D256"/>
	<stop  offset="0.7792" style="stop-color:#74AF4B"/>
	<stop  offset="1" style="stop-color:#62A147"/>
</linearGradient>
<path id="XMLID_32_" class="st30" d="M388.8,185.3c7,2.8,8.2,12.6,8.2,12.6s-7,6.5-14,3.7c-7-2.8-11.4-13.9-11.4-13.9
	S381.8,182.4,388.8,185.3z"/>
<linearGradient id="XMLID_98_" gradientUnits="userSpaceOnUse" x1="-856.8889" y1="1696.5774" x2="-829.9098" y2="1721.4812" gradientTransform="matrix(0.3543 -0.9351 0.9351 0.3543 -912.207 -1202.8385)">
	<stop  offset="0" style="stop-color:#CBF060"/>
	<stop  offset="0.338" style="stop-color:#A3D256"/>
	<stop  offset="0.7792" style="stop-color:#74AF4B"/>
	<stop  offset="1" style="stop-color:#62A147"/>
</linearGradient>
<path id="XMLID_31_" class="st31" d="M388.8,185.3c-7-2.8-17.2,2.4-17.2,2.4l25.4,10.2C396.9,197.8,395.8,188.1,388.8,185.3z"/>
<linearGradient id="XMLID_99_" gradientUnits="userSpaceOnUse" x1="-434.2886" y1="1521.9115" x2="-424.9877" y2="1525.775" gradientTransform="matrix(0.5689 -0.8224 0.8224 0.5689 -637.7718 -1076.6472)">
	<stop  offset="0" style="stop-color:#CBF060"/>
	<stop  offset="0.338" style="stop-color:#A3D256"/>
	<stop  offset="0.7792" style="stop-color:#74AF4B"/>
	<stop  offset="1" style="stop-color:#62A147"/>
</linearGradient>
<path id="XMLID_30_" class="st32" d="M378.4,137.1c4.8,3.5,4,11.2,4,11.2s-6.5,3.6-11.3,0c-4.8-3.5-6.2-12.8-6.2-12.8
	S373.6,133.5,378.4,137.1z"/>
<linearGradient id="XMLID_100_" gradientUnits="userSpaceOnUse" x1="-435.521" y1="1516.9368" x2="-414.334" y2="1536.494" gradientTransform="matrix(0.5689 -0.8224 0.8224 0.5689 -637.7718 -1076.6472)">
	<stop  offset="0" style="stop-color:#CBF060"/>
	<stop  offset="0.338" style="stop-color:#A3D256"/>
	<stop  offset="0.7792" style="stop-color:#74AF4B"/>
	<stop  offset="1" style="stop-color:#62A147"/>
</linearGradient>
<path id="XMLID_29_" class="st33" d="M378.4,137.1c-4.8-3.5-13.6-1.6-13.6-1.6l17.5,12.8C382.4,148.3,383.3,140.6,378.4,137.1z"/>
<g id="XMLID_1_">
	
		<linearGradient id="XMLID_101_" gradientUnits="userSpaceOnUse" x1="29.271" y1="1202.2848" x2="37.4161" y2="1205.6682" gradientTransform="matrix(0.8055 -0.5927 0.5927 0.8055 -328.0414 -814.3891)">
		<stop  offset="0" style="stop-color:#CBF060"/>
		<stop  offset="0.338" style="stop-color:#A3D256"/>
		<stop  offset="0.7792" style="stop-color:#74AF4B"/>
		<stop  offset="1" style="stop-color:#62A147"/>
	</linearGradient>
	<path id="XMLID_28_" class="st34" d="M420.4,132.4c3.1,4.4,0.3,10.6,0.3,10.6s-6.4,1-9.5-3.4c-3.1-4.4-1.7-12.7-1.7-12.7
		S417.3,128,420.4,132.4z"/>
	
		<linearGradient id="XMLID_102_" gradientUnits="userSpaceOnUse" x1="27.9722" y1="1197.7297" x2="46.9593" y2="1215.2563" gradientTransform="matrix(0.8055 -0.5927 0.5927 0.8055 -328.0414 -814.3891)">
		<stop  offset="0" style="stop-color:#CBF060"/>
		<stop  offset="0.338" style="stop-color:#A3D256"/>
		<stop  offset="0.7792" style="stop-color:#74AF4B"/>
		<stop  offset="1" style="stop-color:#62A147"/>
	</linearGradient>
	<path id="XMLID_27_" class="st35" d="M420.4,132.4c-3.1-4.4-10.9-5.5-10.9-5.5l11.2,16.1C420.7,143,423.5,136.9,420.4,132.4z"/>
</g>
<linearGradient id="XMLID_103_" gradientUnits="userSpaceOnUse" x1="42.7254" y1="1153.7708" x2="50.871" y2="1157.1544" gradientTransform="matrix(0.8055 -0.5927 0.5927 0.8055 -328.0414 -814.3891)">
	<stop  offset="0" style="stop-color:#CBF060"/>
	<stop  offset="0.338" style="stop-color:#A3D256"/>
	<stop  offset="0.7792" style="stop-color:#74AF4B"/>
	<stop  offset="1" style="stop-color:#62A147"/>
</linearGradient>
<path id="XMLID_26_" class="st36" d="M402.5,85.4c3.1,4.4,0.3,10.6,0.3,10.6s-6.4,1-9.5-3.4c-3.1-4.4-1.7-12.7-1.7-12.7
	S399.4,80.9,402.5,85.4z"/>
<linearGradient id="XMLID_104_" gradientUnits="userSpaceOnUse" x1="41.4274" y1="1149.2162" x2="60.4145" y2="1166.7427" gradientTransform="matrix(0.8055 -0.5927 0.5927 0.8055 -328.0414 -814.3891)">
	<stop  offset="0" style="stop-color:#CBF060"/>
	<stop  offset="0.338" style="stop-color:#A3D256"/>
	<stop  offset="0.7792" style="stop-color:#74AF4B"/>
	<stop  offset="1" style="stop-color:#62A147"/>
</linearGradient>
<path id="XMLID_25_" class="st37" d="M402.5,85.4c-3.1-4.4-10.9-5.5-10.9-5.5L402.8,96C402.8,96,405.6,89.8,402.5,85.4z"/>
<linearGradient id="XMLID_105_" gradientUnits="userSpaceOnUse" x1="145.532" y1="1016.8358" x2="157.2088" y2="1021.6863" gradientTransform="matrix(0.8781 -0.4784 0.4784 0.8781 -227.4964 -678.8353)">
	<stop  offset="0" style="stop-color:#CBF060"/>
	<stop  offset="0.338" style="stop-color:#A3D256"/>
	<stop  offset="0.7792" style="stop-color:#74AF4B"/>
	<stop  offset="1" style="stop-color:#62A147"/>
</linearGradient>
<path id="XMLID_24_" class="st38" d="M405,140.8c3.6,7-1.5,15.2-1.5,15.2s-9.3,0.1-12.9-6.9c-3.6-7-0.1-18.3-0.1-18.3
	S401.4,133.8,405,140.8z"/>
<linearGradient id="XMLID_106_" gradientUnits="userSpaceOnUse" x1="143.5414" y1="1010.1896" x2="171.0177" y2="1035.5524" gradientTransform="matrix(0.8781 -0.4784 0.4784 0.8781 -227.4964 -678.8353)">
	<stop  offset="0" style="stop-color:#CBF060"/>
	<stop  offset="0.338" style="stop-color:#A3D256"/>
	<stop  offset="0.7792" style="stop-color:#74AF4B"/>
	<stop  offset="1" style="stop-color:#62A147"/>
</linearGradient>
<path id="XMLID_23_" class="st39" d="M405,140.8c-3.6-7-14.5-10-14.5-10l13,25.2C403.4,156,408.6,147.7,405,140.8z"/>
<linearGradient id="XMLID_107_" gradientUnits="userSpaceOnUse" x1="382.3464" y1="547.0102" x2="394.0817" y2="551.8851" gradientTransform="matrix(0.9817 -0.1902 0.1902 0.9817 -23.1905 -256.3234)">
	<stop  offset="0" style="stop-color:#CBF060"/>
	<stop  offset="0.338" style="stop-color:#A3D256"/>
	<stop  offset="0.7792" style="stop-color:#74AF4B"/>
	<stop  offset="1" style="stop-color:#62A147"/>
</linearGradient>
<path id="XMLID_22_" class="st40" d="M474.7,210.1c1.4,7.8-5.8,14-5.8,14s-8.9-2.9-10.3-10.7c-1.4-7.8,5.2-17.5,5.2-17.5
	S473.3,202.4,474.7,210.1z"/>
<linearGradient id="XMLID_108_" gradientUnits="userSpaceOnUse" x1="380.119" y1="540.1277" x2="408.1811" y2="566.0312" gradientTransform="matrix(0.9817 -0.1902 0.1902 0.9817 -23.1905 -256.3234)">
	<stop  offset="0" style="stop-color:#CBF060"/>
	<stop  offset="0.338" style="stop-color:#A3D256"/>
	<stop  offset="0.7792" style="stop-color:#74AF4B"/>
	<stop  offset="1" style="stop-color:#62A147"/>
</linearGradient>
<path id="XMLID_21_" class="st41" d="M474.7,210.1c-1.4-7.8-11-14.2-11-14.2l5.2,28.2C468.9,224.1,476.1,217.9,474.7,210.1z"/>
<linearGradient id="XMLID_109_" gradientUnits="userSpaceOnUse" x1="-349.8942" y1="-1417.944" x2="-337.5338" y2="-1412.8094" gradientTransform="matrix(0.4593 0.8883 -0.8883 0.4593 -674.5143 1109.2749)">
	<stop  offset="0" style="stop-color:#CBF060"/>
	<stop  offset="0.338" style="stop-color:#A3D256"/>
	<stop  offset="0.7792" style="stop-color:#74AF4B"/>
	<stop  offset="1" style="stop-color:#62A147"/>
</linearGradient>
<path id="XMLID_20_" class="st42" d="M427.5,166.6c-6.7,3.6-14.3-2-14.3-2s0.1-9.8,6.8-13.5c6.7-3.6,17.3,0.3,17.3,0.3
	S434.2,162.9,427.5,166.6z"/>
<linearGradient id="XMLID_110_" gradientUnits="userSpaceOnUse" x1="-351.6021" y1="-1424.6071" x2="-323.325" y2="-1398.505" gradientTransform="matrix(0.4593 0.8883 -0.8883 0.4593 -674.5143 1109.2749)">
	<stop  offset="0" style="stop-color:#CBF060"/>
	<stop  offset="0.338" style="stop-color:#A3D256"/>
	<stop  offset="0.7792" style="stop-color:#74AF4B"/>
	<stop  offset="1" style="stop-color:#62A147"/>
</linearGradient>
<path id="XMLID_19_" class="st43" d="M427.5,166.6c6.7-3.6,9.8-15.1,9.8-15.1l-24.1,13.2C413.2,164.6,420.8,170.2,427.5,166.6z"/>
<linearGradient id="XMLID_111_" gradientUnits="userSpaceOnUse" x1="282.3447" y1="-615.0269" x2="291.9283" y2="-611.0459" gradientTransform="matrix(0.8819 0.4714 -0.4714 0.8819 -149.9963 570.8277)">
	<stop  offset="0" style="stop-color:#CBF060"/>
	<stop  offset="0.338" style="stop-color:#A3D256"/>
	<stop  offset="0.7792" style="stop-color:#74AF4B"/>
	<stop  offset="1" style="stop-color:#62A147"/>
</linearGradient>
<path id="XMLID_18_" class="st44" d="M399.3,172.5c-2.8,5.5-10.1,5.5-10.1,5.5s-4.1-6.4-1.3-12c2.8-5.5,11.4-8,11.4-8
	S402.1,167,399.3,172.5z"/>
<linearGradient id="XMLID_112_" gradientUnits="userSpaceOnUse" x1="280.5982" y1="-620.5764" x2="303.3588" y2="-599.5666" gradientTransform="matrix(0.8819 0.4714 -0.4714 0.8819 -149.9963 570.8277)">
	<stop  offset="0" style="stop-color:#CBF060"/>
	<stop  offset="0.338" style="stop-color:#A3D256"/>
	<stop  offset="0.7792" style="stop-color:#74AF4B"/>
	<stop  offset="1" style="stop-color:#62A147"/>
</linearGradient>
<path id="XMLID_17_" class="st45" d="M399.3,172.5c2.8-5.5,0-14.5,0-14.5l-10.1,20C389.2,178,396.5,178,399.3,172.5z"/>
<linearGradient id="XMLID_113_" gradientUnits="userSpaceOnUse" x1="288.1528" y1="-675.7911" x2="297.7361" y2="-671.8101" gradientTransform="matrix(0.8819 0.4714 -0.4714 0.8819 -149.9963 570.8277)">
	<stop  offset="0" style="stop-color:#CBF060"/>
	<stop  offset="0.338" style="stop-color:#A3D256"/>
	<stop  offset="0.7792" style="stop-color:#74AF4B"/>
	<stop  offset="1" style="stop-color:#62A147"/>
</linearGradient>
<path id="XMLID_16_" class="st46" d="M433.1,121.7c-2.8,5.5-10.1,5.5-10.1,5.5s-4.1-6.4-1.3-12c2.8-5.5,11.4-8,11.4-8
	S435.9,116.2,433.1,121.7z"/>
<linearGradient id="XMLID_114_" gradientUnits="userSpaceOnUse" x1="286.4059" y1="-681.3406" x2="309.1664" y2="-660.3309" gradientTransform="matrix(0.8819 0.4714 -0.4714 0.8819 -149.9963 570.8277)">
	<stop  offset="0" style="stop-color:#CBF060"/>
	<stop  offset="0.338" style="stop-color:#A3D256"/>
	<stop  offset="0.7792" style="stop-color:#74AF4B"/>
	<stop  offset="1" style="stop-color:#62A147"/>
</linearGradient>
<path id="XMLID_15_" class="st47" d="M433.1,121.7c2.8-5.5,0-14.5,0-14.5l-10.1,20C423,127.2,430.3,127.2,433.1,121.7z"/>
<linearGradient id="XMLID_115_" gradientUnits="userSpaceOnUse" x1="-5.6037" y1="-1117.3696" x2="4.1035" y2="-1113.3373" gradientTransform="matrix(0.6976 0.7165 -0.7165 0.6976 -387.4108 880.9525)">
	<stop  offset="0" style="stop-color:#CBF060"/>
	<stop  offset="0.338" style="stop-color:#A3D256"/>
	<stop  offset="0.7792" style="stop-color:#74AF4B"/>
	<stop  offset="1" style="stop-color:#62A147"/>
</linearGradient>
<path id="XMLID_14_" class="st48" d="M416,111.3c-4.2,4.4-11.2,2-11.2,2s-2.1-7.5,2.2-11.8c4.2-4.4,13.2-4,13.2-4
	S420.2,106.9,416,111.3z"/>
<linearGradient id="XMLID_116_" gradientUnits="userSpaceOnUse" x1="-7.1632" y1="-1122.7998" x2="15.4733" y2="-1101.9045" gradientTransform="matrix(0.6976 0.7165 -0.7165 0.6976 -387.4108 880.9525)">
	<stop  offset="0" style="stop-color:#CBF060"/>
	<stop  offset="0.338" style="stop-color:#A3D256"/>
	<stop  offset="0.7792" style="stop-color:#74AF4B"/>
	<stop  offset="1" style="stop-color:#62A147"/>
</linearGradient>
<path id="XMLID_13_" class="st49" d="M416,111.3c4.2-4.4,4.1-13.8,4.1-13.8l-15.3,15.8C404.8,113.3,411.7,115.6,416,111.3z"/>
<linearGradient id="XMLID_117_" gradientUnits="userSpaceOnUse" x1="202.9828" y1="921.8226" x2="212.357" y2="925.7167" gradientTransform="matrix(0.9029 -0.4299 0.4299 0.9029 -107.4703 -569.136)">
	<stop  offset="0" style="stop-color:#CBF060"/>
	<stop  offset="0.338" style="stop-color:#A3D256"/>
	<stop  offset="0.7792" style="stop-color:#74AF4B"/>
	<stop  offset="1" style="stop-color:#62A147"/>
</linearGradient>
<path id="XMLID_12_" class="st50" d="M486.9,173.8c2.6,5.7-1.9,12.1-1.9,12.1s-7.5-0.3-10.1-6.1c-2.6-5.7,0.7-14.7,0.7-14.7
	S484.3,168.1,486.9,173.8z"/>
<linearGradient id="XMLID_118_" gradientUnits="userSpaceOnUse" x1="201.3454" y1="916.4514" x2="223.4825" y2="936.8856" gradientTransform="matrix(0.9029 -0.4299 0.4299 0.9029 -107.4703 -569.136)">
	<stop  offset="0" style="stop-color:#CBF060"/>
	<stop  offset="0.338" style="stop-color:#A3D256"/>
	<stop  offset="0.7792" style="stop-color:#74AF4B"/>
	<stop  offset="1" style="stop-color:#62A147"/>
</linearGradient>
<path id="XMLID_11_" class="st51" d="M486.9,173.8c-2.6-5.7-11.2-8.7-11.2-8.7l9.4,20.8C485,185.9,489.5,179.6,486.9,173.8z"/>
<g id="XMLID_48_">
	
		<linearGradient id="XMLID_119_" gradientUnits="userSpaceOnUse" x1="-275.5456" y1="-1380.7695" x2="-264.0533" y2="-1375.9956" gradientTransform="matrix(0.4867 0.8736 -0.8736 0.4867 -573.8971 1081.8499)">
		<stop  offset="0" style="stop-color:#CBF060"/>
		<stop  offset="0.338" style="stop-color:#A3D256"/>
		<stop  offset="0.7792" style="stop-color:#74AF4B"/>
		<stop  offset="1" style="stop-color:#62A147"/>
	</linearGradient>
	<path id="XMLID_10_" class="st52" d="M501.9,187c-6.5,3.6-14.2-1.4-14.2-1.4s-0.2-9.2,6.3-12.7c6.5-3.6,17.1-0.3,17.1-0.3
		S508.3,183.4,501.9,187z"/>
	
		<linearGradient id="XMLID_120_" gradientUnits="userSpaceOnUse" x1="-277.3391" y1="-1387.1555" x2="-250.6358" y2="-1362.5063" gradientTransform="matrix(0.4867 0.8736 -0.8736 0.4867 -573.8971 1081.8499)">
		<stop  offset="0" style="stop-color:#CBF060"/>
		<stop  offset="0.338" style="stop-color:#A3D256"/>
		<stop  offset="0.7792" style="stop-color:#74AF4B"/>
		<stop  offset="1" style="stop-color:#62A147"/>
	</linearGradient>
	<path id="XMLID_9_" class="st53" d="M501.9,187c6.5-3.6,9.2-14.4,9.2-14.4l-23.4,13C487.7,185.6,495.4,190.6,501.9,187z"/>
</g>
<linearGradient id="XMLID_121_" gradientUnits="userSpaceOnUse" x1="449.0718" y1="344.7005" x2="432.195" y2="404.4389">
	<stop  offset="0" style="stop-color:#8C6F5A"/>
	<stop  offset="1" style="stop-color:#5C3D3B"/>
</linearGradient>
<path id="XMLID_8_" class="st54" d="M525.3,405H371.8c0,0,0,0,0,0c-10.8-3.3-20.4-7.6-29.2-13.3c0.9-0.8,1.6-1.6,2.3-2.3
	c0.3-0.3,0.6-0.7,0.9-1.1c1.5-1.7,3.7-3.9,6.2-6.3c4.9-4.9,10.6-10.3,13.1-12.3c3.9-3.2,14.7-7.2,19.4-11.7c1.3-1.3,2.7-2.6,4.3-3.8
	c0,0,0,0,0,0c4-3.3,8.8-6.3,14.4-7.6c7-1.6,14.1-8.1,21.8-7.3h0c1,0.1,1.9,0.3,2.9,0.7c3.4,1.2,6.8,3.5,10,5.9l0,0
	c5.1,3.8,10,8.2,14.8,10.1c3.8,1.5,8.8,3,13.8,4.8c0,0,0,0,0.1,0h0c2.6,0.9,5.2,2,7.6,3.1c2.5,1.2,4.7,2.6,6.3,4.2
	c6.1,5.9,16.4,17.6,23,20.3c0.1,0,0.1,0.1,0.2,0.1c1.8,0.7,3.8,1.8,5.9,3c0,0,0,0,0,0c4.1,2.5,8.4,5.8,11.6,9.1
	c1.2,1.2,2.2,2.3,3,3.4C524.6,404.3,524.9,404.7,525.3,405L525.3,405z"/>
<linearGradient id="XMLID_122_" gradientUnits="userSpaceOnUse" x1="587.447" y1="303.8337" x2="695.6061" y2="341.8905" gradientTransform="matrix(0.9885 0.151 -0.151 0.9885 29.9312 -76.651)">
	<stop  offset="0" style="stop-color:#FFD8C2"/>
	<stop  offset="1" style="stop-color:#FFB49C"/>
</linearGradient>
<path id="XMLID_7_" class="st55" d="M642.6,280.9c0,0-19.9,24.2-28.8,31.3c-8.9,7.1-67.8,30.6-72.5,31.9l2.2,30
	c0,0,47.3-8.6,68.5-15.6c21.2-6.9,34.3-12.6,39.3-17.7c5-5.2,23.2-25.3,23.2-25.3L642.6,280.9z"/>
<linearGradient id="XMLID_123_" gradientUnits="userSpaceOnUse" x1="654.1282" y1="210.8204" x2="717.4679" y2="255.7172" gradientTransform="matrix(0.9885 0.151 -0.151 0.9885 29.9312 -76.651)">
	<stop  offset="0" style="stop-color:#444F61"/>
	<stop  offset="1" style="stop-color:#262C36"/>
</linearGradient>
<path id="XMLID_6_" class="st56" d="M681.5,219.5c-9.5,6.3-46,58.5-46.3,60.3c-0.3,1.8,6.7,13.8,19,27.6c12.4,13.7,22.2,20.1,24,19
	c1.9-1.2,32.9-24.3,36.2-36.6c3.3-12.3,7.2-39.7,0.3-55.9C707.8,217.7,692.9,211.9,681.5,219.5z"/>
<linearGradient id="XMLID_124_" gradientUnits="userSpaceOnUse" x1="504.2769" y1="349.8575" x2="526.5222" y2="352.4754" gradientTransform="matrix(0.9885 0.151 -0.151 0.9885 29.9312 -76.651)">
	<stop  offset="5.376341e-003" style="stop-color:#0071BC"/>
	<stop  offset="1" style="stop-color:#2E3192"/>
</linearGradient>
<path id="XMLID_5_" class="st57" d="M519.2,347.7c0,0-10.1-3.5-13.7-4.1c-3.7-0.6-7.6-0.8-11.1,1.1c-3.5,1.9-7.6,1.9-10.2,2.4
	c-2.6,0.5-9.2,2.4-11.3,2.4c-2.2,0-1.1,4.5,3.6,6s7.9-0.4,9.6-0.5c1.7-0.1,5.3,1.7,9.3,2.3C499.3,358,518.1,355.4,519.2,347.7z"/>
<linearGradient id="XMLID_125_" gradientUnits="userSpaceOnUse" x1="451.6651" y1="385.6461" x2="499.6937" y2="385.6461">
	<stop  offset="5.376341e-003" style="stop-color:#0071BC"/>
	<stop  offset="1" style="stop-color:#2E3192"/>
</linearGradient>
<path id="XMLID_4_" class="st58" d="M451.7,377.5c0,0,3.7,4.3,7,6.5c3.3,2.2,8.5,2.6,10.2,3.3c1.7,0.7,4.5,4.4,6.2,5.6
	s3.7,3,7.9,3.3c4.2,0.3,16.7,0.5,16.7,0.5l-15.1-22L451.7,377.5z"/>
<linearGradient id="XMLID_126_" gradientUnits="userSpaceOnUse" x1="507.3188" y1="362.6163" x2="546.4691" y2="381.9581" gradientTransform="matrix(0.9885 0.151 -0.151 0.9885 29.9312 -76.651)">
	<stop  offset="5.376341e-003" style="stop-color:#0071BC"/>
	<stop  offset="1" style="stop-color:#2E3192"/>
</linearGradient>
<path id="XMLID_3_" class="st59" d="M520.1,348.3c-0.7-1.4-4.2-1.3-8.9-0.2c-4.7,1.1-19.4,8.9-25.6,11.5c-6.2,2.6-15.7,8-18.9,8.9
	c-3.2,0.9-5.8,0.3-9.1,1c-3.3,0.6-8.4,2-10.6,3.8c-2.2,1.8-2.7,3-1.3,4s3.5,2.1,7.5,1.9c3.9-0.3,7.8-0.1,11.8,0.2
	c4,0.3,5.6,0.6,8.5-0.1c2.9-0.7,8.8-1.8,10.8-1.6c2,0.2,7.2,8,9.8,12.3c2.6,4.4,3.6,6.1,5.5,6.4c1.9,0.3,17.8-3.4,28.7-13.9
	C528.4,382.7,524.4,356.9,520.1,348.3z"/>
<linearGradient id="XMLID_127_" gradientUnits="userSpaceOnUse" x1="568.3122" y1="318.3372" x2="568.3122" y2="393.4658" gradientTransform="matrix(0.9885 0.151 -0.151 0.9885 29.9312 -76.651)">
	<stop  offset="5.376341e-003" style="stop-color:#0071BC"/>
	<stop  offset="1" style="stop-color:#2E3192"/>
</linearGradient>
<path id="XMLID_2_" class="st60" d="M524.3,344.8c-2.5,0.6-4.9,0.9-5.1,2.9c-0.2,2,3.6,11.5,5.3,19.8c1.7,8.3,2,11.7,2.4,13.9
	c0.4,2.2,0.8,3,4,2.6c3.3-0.4,9.1-1.2,15-2.1c5.9-1,10.1-1.4,10.4-4.6c0.2-3.3-2.7-19.2-4.3-26.8c-1.6-7.6-4.5-13.8-6.9-14.2
	C542.7,335.8,533.5,342.5,524.3,344.8z"/>
<linearGradient id="XMLID_128_" gradientUnits="userSpaceOnUse" x1="329.6357" y1="371.449" x2="351.2014" y2="408.0605">
	<stop  offset="0" style="stop-color:#8C6F5A"/>
	<stop  offset="1" style="stop-color:#5C3D3B"/>
</linearGradient>
<path id="XMLID_66_" class="st61" d="M401.8,405H297c4.2-2.9,8.3-5.4,11.9-7.3c9.6-5,16.5-11.7,22.5-16.7c3.8-3.2,7.3-5.6,10.9-6.5
	c4.3-1,8.5-2.5,12.7-2.6c4.9-0.2,9.8,1.4,15.3,7.2c0.6,0.6,1.2,1.3,1.9,1.9C379.1,387.5,391,395.8,401.8,405z"/>
</svg>
