<?xml version="1.0" encoding="utf-8"?>
<!-- Generator: Adobe Illustrator 19.0.0, SVG Export Plug-In . SVG Version: 6.00 Build 0)  -->
<svg version="1.1" id="Warstwa_1" xmlns="http://www.w3.org/2000/svg" xmlns:xlink="http://www.w3.org/1999/xlink" x="0px" y="0px"
	 viewBox="0 0 800 600" style="enable-background:new 0 0 800 600;" xml:space="preserve">
<path id="XMLID_9_" d="M1289.6,142.8l5.6-7.6l-0.2-0.1l-3.3-2.3l-3.9,0.6c-14.7,2.4-28.4,5.8-41,9.8l0,0
	c-43,13.7-73.4,34.5-91.1,49.3l6.3,7.1l-0.3-9.4l-0.2,0l0.3,9.4l5.5-7.7c-21-14.4-42.9-26-65.6-34.7l0,0c-10.1-3.9-19.9-7-29.2-9.4
	l0.1,0c-15.3-4.1-29.3-6.3-41.7-7.4l-4-0.4l-6.3,5.1l-0.4,3.8c-0.4,4.1-0.6,8.3-0.6,12.5v113.5c0,36.8,14.7,70.9,38.8,96.1
	c24.1,25.3,57.8,41.8,95.8,43.3c2,0.1,3.9,0.1,5.9,0.1c41.3,0,78.6-17.5,104.3-45.2l0,0c10.8-11.7,19.6-25.2,25.8-40.1l0,0
	c6.7-15.9,10.3-33.3,10.3-51.5V161.6c0-6.9-0.5-13.6-1.5-20.2l-0.6-3.9l-3.3-2.3L1289.6,142.8l-9.5,1.4c0.9,5.7,1.3,11.5,1.3,17.4
	v116.2c0,15.7-3.2,30.7-8.9,44.4l0,0c-5.3,12.8-12.9,24.5-22.3,34.6l0,0c-22.2,24-54.3,39-90,39c-1.7,0-3.4,0-5.1-0.1
	c-32.6-1.3-61.5-15.4-82.5-37.3c-20.9-21.9-33.6-51.4-33.6-83.4V161.6c0-3.6,0.2-7.2,0.5-10.8l-9.6-0.9l6.2,7.2l0.2-0.1l-6.2-7.2
	l-0.9,9.3c11.4,1,24.3,3.1,38.4,6.8l0,0l0,0c8.6,2.2,17.6,5.1,27,8.7l0,0c21.2,8.1,41.7,19,61.6,32.6l2.6,1.8l3.4-0.1l3.4-0.1
	l2.6-2.2c16.2-13.6,44.5-33,84.5-45.7l0,0c11.7-3.7,24.5-6.9,38.2-9.1l-1.6-9.3l-5.6,7.6l0.2,0.1L1289.6,142.8l-9.5,1.4
	L1289.6,142.8z M1157.3,365.6l0.3-9.4c-21.8-0.7-41.2-10.1-55.3-24.7c-14.1-14.7-22.6-34.6-22.6-56v-77.1h-9.6l5.7,7.5l0.2-0.2
	l-5.7-7.5l-3,8.9c4.9,1.6,10,3.4,15.2,5.4l0,0c51,20.4,99.9,61.4,143.5,121.1l7.9-5.4l-9.6,0l0,0.2l9.6,0l-7.9-5.4
	c-7.3,10-17,18.3-28.2,24.1c-11.2,5.8-24,9.1-37.6,9.1c-0.9,0-1.7,0-2.6,0L1157.3,365.6l-0.3,9.4c1.1,0,2.1,0,3.2,0
	c16.8,0,32.7-4.1,46.6-11.3c13.9-7.2,25.9-17.5,34.9-29.9l1.8-2.5l0-3.2l0-3l-1.8-2.4c-45.1-61.8-96.4-105.4-151.9-127.6l0,0
	c-5.7-2.3-11.2-4.2-16.5-5.9l-4.7-1.5l-8.1,5.8v81.8c0,26.3,10.5,50.8,27.8,68.8c17.3,18.1,41.5,29.8,68.7,30.7L1157.3,365.6z
	 M1250.4,277.9h-9.6c0,1.5-0.1,3.1-0.2,4.7l9.6,0.5l7.6-5.8c-18-22.4-37-42.2-56.7-59.3l-6.4,7l9.6,0.1l0-0.2l-9.6-0.1l6,7.4
	c11.8-9,29.5-20.3,53-29.3l-3.5-8.7l-5.4,7.8l0.2,0.1l5.4-7.8h-9.6v83.6H1250.4h9.6v-88.6l-8.7-5.7l-4.7,1.8
	c-25.6,9.7-44.9,22-58,32l-3.6,2.8l-0.1,9l3.3,2.9c18.8,16.3,37,35.3,54.4,56.9l15.7,19.5l1.5-24.8c0.1-1.8,0.2-3.8,0.2-5.8H1250.4z
	"/>
</svg>
