<?xml version="1.0" encoding="utf-8"?>
<!-- Generator: Adobe Illustrator 19.0.0, SVG Export Plug-In . SVG Version: 6.00 Build 0)  -->
<svg version="1.1" xmlns="http://www.w3.org/2000/svg" xmlns:xlink="http://www.w3.org/1999/xlink" x="0px" y="0px"
	 viewBox="0 0 500 500" style="enable-background:new 0 0 500 500;" xml:space="preserve">
<style type="text/css">
	.st0{fill:#FFFFFD;}
	.st1{fill:#F8F9FA;}
	.st2{fill:#E6F2F4;}
	.st3{fill:#366163;}
	.st4{fill:url(#SVGID_1_);}
	.st5{fill:#F9BA1C;}
	.st6{fill:#264649;}
	.st7{fill:url(#SVGID_2_);}
	.st8{fill:url(#SVGID_3_);}
	.st9{fill:#333333;}
	.st10{fill:#FFC9A4;}
	.st11{fill:#F7BB92;}
	.st12{fill:#7AC1A4;}
	.st13{fill:#87D6B4;}
	.st14{fill:#004B4F;}
	.st15{fill:#CCFF99;}
	.st16{fill:#BBD981;}
	.st17{fill:#CDE88B;}
	.st18{fill:#8C6F5A;}
	.st19{fill:#5C3D3B;}
	.st20{fill:#FFE340;}
	.st21{fill:#5BCECE;}
	.st22{fill:url(#SVGID_4_);}
	.st23{fill:url(#SVGID_5_);}
	.st24{fill:#FCCB9D;}
	.st25{fill:#0071BC;}
	.st26{fill:url(#SVGID_6_);}
	.st27{fill:url(#SVGID_7_);}
	.st28{fill:#004448;}
</style>
<g id="BACKGROUND">
	<g>
		<rect x="0" y="0" class="st0" width="500" height="500"/>
	</g>
</g>
<g id="OBJECTS">
	<rect x="0" y="0" class="st1" width="500" height="500"/>
	<ellipse class="st2" cx="408.8" cy="219.9" rx="65.6" ry="11.9"/>
	<path class="st3" d="M361,211.6c0,0-0.5,1.3,0.4,2.6c1,1.3,6,2.3,6.6,3.7c0.5,1.3-0.3,2.2-2.5,2.1c-1.3-0.1-4.2,0.1-5.9-1.3
		c-2.1-1.8-4.1-3.6-4.3-3.9c-0.4-0.6,2.3-3.5,2.2-4.3C357.4,209.7,361,211.6,361,211.6z"/>
	<linearGradient id="SVGID_1_" gradientUnits="userSpaceOnUse" x1="355.6488" y1="214.4314" x2="368.1062" y2="214.4314">
		<stop  offset="0" style="stop-color:#FEA305"/>
		<stop  offset="0.9946" style="stop-color:#FED905"/>
	</linearGradient>
	<path class="st4" d="M361.3,210.9c0,0-0.5,1.3,0.4,2.6c1,1.3,5,3,6.1,4.2c0.7,0.8,0.3,1.7-1.9,1.6c-1.3-0.1-4.2,0.1-5.9-1.3
		c-2.1-1.8-4.1-3.6-4.3-3.9c-0.4-0.6,2.3-3.5,2.2-4.3C357.8,208.9,361.3,210.9,361.3,210.9z"/>
	<path class="st5" d="M381.8,210.9c0,0-0.4,1.4,1.3,1.8c1.7,0.4,6.3,1.3,7.9,2c1.6,0.8,1.9,2.3-0.5,2.7c-2.4,0.4-11.3,0.3-12.1,0
		s-0.5-3.5,0.3-5.7C379.1,210.9,381.8,210.9,381.8,210.9z"/>
	<path class="st3" d="M378.2,216.5c0.8,0.2,10,0.2,12.4-0.2c0.9-0.1,1.3-0.4,1.5-0.8c0.5,0.7,0.2,1.6-1.5,1.9
		c-2.4,0.4-11.3,0.3-12.1,0c-0.3-0.1-0.5-0.4-0.4-1C378.1,216.5,378.2,216.5,378.2,216.5z"/>
	<path class="st6" d="M381.5,161.8c0,0,2.9,19.7,3.1,22.8c0.1,3.1-2.2,27.6-2.2,27.6l-3.9,0.3c0,0-1.2-21.8-1-26.4
		c-0.4-1.6-3-13.4-5.2-16c-2.2-2.6-3.6-5.3-3.6-7.7S381.5,161.8,381.5,161.8z"/>
	<path class="st3" d="M380.7,164.5c0,0-3.5,19.8-4.7,22.9c-1.2,3.1-14.7,24.3-14.7,24.3l-3.8-1.3c0,0,9.1-20,11.2-24.5
		c0.3-1.7,2.3-11.2-0.5-13.5c-5.2-4.4-3.1-9.7-2-12S380.7,164.5,380.7,164.5z"/>
	<linearGradient id="SVGID_2_" gradientUnits="userSpaceOnUse" x1="359.222" y1="147.4391" x2="369.1096" y2="147.4391">
		<stop  offset="5.376341e-003" style="stop-color:#0071BC"/>
		<stop  offset="1" style="stop-color:#2E3192"/>
	</linearGradient>
	<path class="st7" d="M369.1,133.1c0,0-6,8.3-9.7,16.2c-1.4,3.2,8.8,12.6,8.8,12.6L369.1,133.1z"/>
	<linearGradient id="SVGID_3_" gradientUnits="userSpaceOnUse" x1="370.8888" y1="137.1678" x2="375.4521" y2="171.8997">
		<stop  offset="5.376341e-003" style="stop-color:#0071BC"/>
		<stop  offset="1" style="stop-color:#2E3192"/>
	</linearGradient>
	<path class="st8" d="M373.7,128.8c0,0-8.5,1.6-9.3,19.5c-0.5,10.6-0.1,16.7-0.1,16.7s11.7,2.8,18.9-0.6
		C383.2,149.6,381.9,130.3,373.7,128.8z"/>
	<path class="st9" d="M383.7,118.2c0,0,1.9,0.1,3.2,2.4c1.3,2.4,1.7,4.6,1,8.1c-0.7,3.5-3.3,2.7-3.8,2.9c1.5-0.5,1.8-1.8,1.9-2.4
		c-0.9,1.1-1.4,1.4-1.9,1.8c-0.5,0.4-1.2,3.5,0.1,4.6c-1-0.5-1.9-2-1.7-2.9c-0.3,0.6-0.1,1.6,0.5,2.5c-0.7-0.4-1.1-1.3-1.1-1.3
		c0.1,1.1,0.1,1.4,0.9,2.2c-3.2-0.6-5.2-2.4-6.4-5.7C375.1,127,382.5,118.2,383.7,118.2z"/>
	<path class="st10" d="M385.6,121.3c0,0,1,2.2-0.3,3.8c-1.3,1.6-1.3,2.6-1.1,3.8c-0.3,0.4-1.3,0-1.3,0s-0.1,0.6-0.2,0.6
		s-0.5,0.1-0.8,0.1c0,0.4,0.1,0.6,0,0.6c-0.1,0.1-0.6,0.1-0.7,0.3c-0.1,0.2-0.3,1.3-1.3,1.1c-0.9-0.3-3.6-3.4-2.6-6.4
		c1-2.9,4.5-4.8,4.9-5C382.8,119.9,385.8,120.9,385.6,121.3z"/>
	<path class="st11" d="M378.9,130c0,0-1,0-1.5,1c-0.5,1,1.5,4.7,1.1,4.7c-2.3-0.3-6.3-5.7-6.3-5.7s2.7-1.8,3.6-3.1
		c0.9-1.3,1.8-1.7,1.8-1.7L378.9,130z"/>
	<path class="st9" d="M385.9,121.7c0,0-0.3-2.7-2.5-4.6c-2.2-1.8-5.4-1.4-8.4,2.2c-3,3.7-5,7.9-3.3,10.4c0.3,0,1.6-1,2.2-0.6
		s1.8,2,3.8,2.6c-1-0.8-1.5-2.1-1.6-2c1.3,1.4,2.2,1.6,2.5,1.7c-0.8-0.6-1.2-1.6-1.2-1.6c0.7,0.9,1.1,0.8,2,1.3
		c-0.4-0.7-2.6-5.7-0.5-7.7c0.6-0.5,0.3,0.3,0.3,0.3s1.3,0.6,2.2-0.5C382.3,122,384.7,123.2,385.9,121.7z"/>
	<path class="st9" d="M374.9,119.4c3-3.7,6.2-4.1,8.4-2.2c1.7,1.4,2.3,3.4,2.5,4.2c-0.4-0.8-1-1.8-1.9-2.6c-2.2-1.8-5.4-1.4-8.4,2.2
		c-2,2.4-2.5,5.6-2.1,8.2c-0.7,0.1-1.5,0.7-1.7,0.7C369.9,127.3,372,123,374.9,119.4z"/>
	<path class="st10" d="M379.5,123.9c0,0-0.1-2.2-1-1.8c-0.9,0.4-1.2,2.1-0.5,3.2c0.3,0.3,0.7,0.1,1-0.5
		C379.3,124.2,379.5,123.9,379.5,123.9z"/>
	<path class="st12" d="M400.1,187.5c0,0-1.9-5.6,2-9.9c3.9-4.3,8.9-0.7,12.9-3.2C413.1,180.9,409.7,188.1,400.1,187.5z"/>
	<path class="st13" d="M396.5,188.4c0,0,3.4-6.4,0.5-12.3c-2.9-5.9-13.1,1.5-17.1-3.2c1.5,6,3.8,9.1,8,11.1S395.3,184.5,396.5,188.4
		z"/>
	<path class="st12" d="M392.1,190.1c0,0-2.8-6.3-9.3-6.5c-6.6-0.2-5.4,7.1-11,9.4c4.9,1.2,10.8-0.4,12.7-1.4
		C386.6,190.3,389.3,189.3,392.1,190.1z"/>
	<path class="st14" d="M407.3,178.9c-5.9,3.2-8.2,9.6-8.9,15.7c-0.4-3.3-0.9-6.5-1.4-8.1c-1.9-5.7-5.3-8.3-10.1-8.4
		c3,0.5,7.6,3,9.2,9.4c0.7,2.7,1,6.9,1.1,10.8c-0.6-2.7-1.6-5.5-3.2-7.5c-4.1-5.2-11.3-3.1-12.7-2.4c3.9-0.8,9.3-0.4,12,4.5
		c2.2,4.1,3.7,12.3,3.9,14.8c0,0.1,0,0.2,0,0.3c1.7,0.6,3.7,0.1,4.8-1.3C397.4,190.1,403.2,183.5,407.3,178.9z"/>
	<path class="st15" d="M417.9,164.4c0,0-1-8,5.2-12.6s12,1.4,17.9-1C436.7,159,430.3,167.8,417.9,164.4z"/>
	<path class="st15" d="M412.8,164.8c0,0,6.2-7.7,3.8-16.3s-17.7-1.4-21.8-8.6c0.5,8.4,2.7,13.1,7.8,16.8
		C407.6,160.4,412.2,159.2,412.8,164.8z"/>
	<path class="st15" d="M406.5,165.8c0,0-2-9.1-10.7-11.1c-8.7-1.9-9,8.1-17,9.6c6.3,2.8,14.4,2.3,17.2,1.4
		C399.2,164.7,403,164.1,406.5,165.8z"/>
	<path class="st14" d="M429.6,154.9c-8.7,2.7-13.4,10.7-15.9,18.6c0.3-4.5,0.5-8.9,0.2-11.1c-1.1-8.1-5-12.4-11.3-13.8
		c3.8,1.5,9.3,6,9.9,14.9c0.2,3.8-0.5,9.4-1.4,14.6c-0.1-3.8-0.7-7.7-2.3-10.8c-4.2-8-14.2-7.1-16.3-6.4c5.3,0,12.5,1.9,14.7,9
		c1.9,6.1,1.4,28.9,0.9,32.4c0,0.1-0.1,0.2-0.1,0.3c2.1,1.2,4.9,1.1,6.8-0.5C413.2,178.8,416.7,160.7,429.6,154.9z"/>
	<path class="st16" d="M427.7,189.2c0,0-0.6-4,2.5-6.4s6,0.6,9-0.7C437.1,186.2,434,190.7,427.7,189.2z"/>
	<path class="st17" d="M425.1,189.4c0,0,3-3.9,1.7-8.2s-8.9-0.5-11.1-4.1c0.3,4.2,1.5,6.5,4.1,8.3
		C422.5,187.3,424.8,186.7,425.1,189.4z"/>
	<path class="st16" d="M422,190c0,0-1.1-4.6-5.5-5.4c-4.4-0.9-4.4,4.2-8.4,5c3.2,1.3,7.3,1,8.7,0.5C418.3,189.6,420.2,189.2,422,190
		z"/>
	<path class="st14" d="M433.5,184.3c-4.3,1.5-6.6,5.5-7.7,9.5c0.1-2.3,0.1-4.5,0-5.6c-0.6-4-2.6-6.2-5.8-6.8
		c1.9,0.7,4.7,2.9,5.1,7.4c0.2,1.9-0.1,4.7-0.5,7.3c-0.1-1.9-0.4-3.9-1.3-5.4c-2.2-3.9-7.2-3.4-8.2-3c2.7-0.1,6.3,0.8,7.5,4.3
		c1,3,1.1,8.6,0.9,10.4c0,0.1,0,0.1,0,0.2c1.1,0.6,2.5,0.5,3.4-0.3C425.5,190.6,430.2,186.9,433.5,184.3z"/>
	<path class="st18" d="M377,220.2c-2.3,0-0.7-5.3,1.3-6.4c2.3-1.3,2-0.7,3.1-2.5c3.1-5.4,6.2-4.8,7.9-5.6l1.3-0.6
		c0.3-0.1,0.6-0.3,0.8-0.6c1.2-1.4,5.8-6.3,9.7-6.2c4.5,0.2,9-2.4,14.8-0.6c5.8,1.8,10-0.6,14.5,1.6c4.5,2.2,10,3.8,12.7,7.2
		c1.7,2.1,2.8,6.2,7.3,9.5c1.8,1.4,0.8,4.2-1.4,4.2H377z"/>
	<path class="st19" d="M381,220.6c-2.7,0-4.2-3.2-2.4-5.3c0.5-0.5,0.9-1.1,1.4-1.6c3.1-4.2,6.2-3.7,7.9-4.3l1.5-0.5
		c0.2-0.1,0.4-0.2,0.6-0.3c1.1-1,5.8-5,9.7-4.8c4.5,0.1,9-1.9,14.8-0.5c5.8,1.4,10-0.4,14.5,1.2c4.5,1.7,10,3,12.7,5.6
		c1.8,1.8,1.4,2.1,6.8,4.7c1.6,0.8,3.4,5.9,1.6,5.9H381z"/>
	<path class="st20" d="M401.8,170.9l7.2,0.3l1.2,0.6c0.3,0.1,0.5-0.2,0.3-0.4l-2.3-2.5c-0.2-0.2-0.4-0.1-0.4,0.2l-0.1,0.7l-4.3-1.3
		L401.8,170.9z"/>
	<path class="st21" d="M410.7,175.1c0,0,1.2,1,0.7,3.5s-2.6,3.1-2.9,1.8c-0.4-1.3,1.1-2.2,1.6-3.1S410.9,175.6,410.7,175.1z"/>
	<path class="st21" d="M413.7,178.4c0,0,0.6,0.2,1,1.3s-0.3,1.8-0.7,1.3c-0.4-0.5,0-1.1,0-1.6C413.9,179,413.9,178.6,413.7,178.4z"
		/>
	<path class="st21" d="M410.8,170.5c0,0,0.4-0.5,1.5-0.5s1.6,0.9,1,1.1c-0.6,0.2-1.1-0.4-1.5-0.5C411.4,170.5,411,170.4,410.8,170.5
		z"/>
	<path class="st21" d="M410.3,171.1c0,0,1.5-0.1,2.9,2s0.2,4.1-0.9,3.3c-1.2-0.7-0.6-2.3-0.9-3.3
		C411.1,172.1,410.7,171.3,410.3,171.1z"/>
	<path class="st20" d="M405.9,164.9c0.8-1,0.6-2.5-0.5-3.5s-2.6-1-3.5-0.1L405.9,164.9z"/>
	<linearGradient id="SVGID_4_" gradientUnits="userSpaceOnUse" x1="393.8658" y1="167.5054" x2="406.1288" y2="167.5054">
		<stop  offset="5.376340e-003" style="stop-color:#FED905"/>
		<stop  offset="1" style="stop-color:#FEA305"/>
	</linearGradient>
	<path class="st22" d="M396.6,173.1l-1.8-1.6c-1.3-1.2-1.3-3.2,0-4.4l6-5.6c0.4-0.4,1-0.4,1.4,0l3.6,3.2c0.4,0.4,0.5,1,0.1,1.4
		l-4.9,6.6C399.9,174,397.9,174.2,396.6,173.1z"/>
	<linearGradient id="SVGID_5_" gradientUnits="userSpaceOnUse" x1="392.8718" y1="163.4639" x2="400.8987" y2="163.4639">
		<stop  offset="0" style="stop-color:#FEA305"/>
		<stop  offset="0.9946" style="stop-color:#FED905"/>
	</linearGradient>
	<path class="st23" d="M393.6,166.7c-0.1-0.1-0.3-0.3-0.4-0.5c-0.3-0.5-0.4-1.1-0.2-1.8c0.6-1.9,3-4.5,4.6-5c0.6-0.2,1,0,1.3,0.1
		c1.2,0.9,2,2.7,2,2.8l-0.8,0.4c0,0-0.8-1.7-1.7-2.4c-0.1-0.1-0.3-0.1-0.5,0c-1.3,0.4-3.5,2.7-4.1,4.4c-0.1,0.4-0.1,0.8,0.1,1.1
		c0.4,0.7,1.6,1,2,1l-0.1,0.9C395.8,167.6,394.4,167.4,393.6,166.7z"/>
	<path class="st24" d="M391.7,159.4c0,0,4-0.6,5.5,0.9c1.5,1.5,0.8,4.8-3.3,4.3c-0.3-1-1.4-1-1.8-1.1
		C391.8,163.4,391.7,159.4,391.7,159.4z"/>
	<path class="st25" d="M369.2,138.8c0,0,2.3-5,5.8-3.7s-0.7,17.1,0.3,19.4c1,2.3,13.3,4.1,17.5,4.6c0.2,3,0,4.3-0.1,4.6
		s-13.1,0.9-19.3-1C367.1,160.8,364.9,148.7,369.2,138.8z"/>
	<linearGradient id="SVGID_6_" gradientUnits="userSpaceOnUse" x1="385.0141" y1="215.2595" x2="402.0315" y2="215.2595">
		<stop  offset="5.376340e-003" style="stop-color:#FED905"/>
		<stop  offset="1" style="stop-color:#FEA305"/>
	</linearGradient>
	<polygon class="st26" points="400.3,223.8 386.8,223.8 385,206.8 402,206.8 	"/>
	<linearGradient id="SVGID_7_" gradientUnits="userSpaceOnUse" x1="384.7142" y1="207.6215" x2="402.2167" y2="207.6215">
		<stop  offset="0" style="stop-color:#FEA305"/>
		<stop  offset="0.9946" style="stop-color:#FED905"/>
	</linearGradient>
	<rect x="384.7" y="206.6" class="st27" width="17.5" height="2.1"/>
	<g>
		<path class="st28" d="M394.5,207.4c-0.1-0.1-0.2,0-0.3,0.1c0,0.1-4.7,9.2-8,11.5c-0.9,0.6-1.6,0.8-1.9,0.5
			c-0.6-0.6-0.2-3.1,1.5-5.8l-0.1-0.7c-1.9,3-2.6,6-1.7,6.9c0.2,0.1,0.4,0.3,0.7,0.3c0.4,0,1-0.2,1.7-0.7c3.4-2.4,8-11.3,8.2-11.7
			C394.6,207.6,394.6,207.5,394.5,207.4z"/>
	</g>
</g>
</svg>
